<svg width="25" height="25" viewBox="0 0 25 25" fill="none" xmlns="http://www.w3.org/2000/svg">
<path d="M12.8854 2.23975L22.2604 5.98972C22.625 6.13555 22.9167 6.57305 22.9167 6.95847V10.4168C22.9167 10.9898 22.4479 11.4585 21.875 11.4585H3.12501C2.55209 11.4585 2.08334 10.9898 2.08334 10.4168V6.95847C2.08334 6.57305 2.37501 6.13555 2.73959 5.98972L12.1146 2.23975C12.3229 2.15641 12.6771 2.15641 12.8854 2.23975Z" stroke="#176B87" stroke-width="1.5625" stroke-miterlimit="10" stroke-linecap="round" stroke-linejoin="round"/>
<path d="M22.9167 22.9167H2.08334V19.7917C2.08334 19.2187 2.55209 18.75 3.12501 18.75H21.875C22.4479 18.75 22.9167 19.2187 22.9167 19.7917V22.9167Z" stroke="#176B87" stroke-width="1.5625" stroke-miterlimit="10" stroke-linecap="round" stroke-linejoin="round"/>
<path d="M4.16666 18.7502V11.4585" stroke="#176B87" stroke-width="1.5625" stroke-miterlimit="10" stroke-linecap="round" stroke-linejoin="round"/>
<path d="M8.33334 18.7502V11.4585" stroke="#176B87" stroke-width="1.5625" stroke-miterlimit="10" stroke-linecap="round" stroke-linejoin="round"/>
<path d="M12.5 18.7502V11.4585" stroke="#176B87" stroke-width="1.5625" stroke-miterlimit="10" stroke-linecap="round" stroke-linejoin="round"/>
<path d="M16.6667 18.7502V11.4585" stroke="#176B87" stroke-width="1.5625" stroke-miterlimit="10" stroke-linecap="round" stroke-linejoin="round"/>
<path d="M20.8333 18.7502V11.4585" stroke="#176B87" stroke-width="1.5625" stroke-miterlimit="10" stroke-linecap="round" stroke-linejoin="round"/>
<path d="M1.04166 22.9165H23.9583" stroke="#176B87" stroke-width="1.5625" stroke-miterlimit="10" stroke-linecap="round" stroke-linejoin="round"/>
<path d="M12.5 8.854C13.3629 8.854 14.0625 8.15445 14.0625 7.2915C14.0625 6.42856 13.3629 5.729 12.5 5.729C11.6371 5.729 10.9375 6.42856 10.9375 7.2915C10.9375 8.15445 11.6371 8.854 12.5 8.854Z" stroke="#176B87" stroke-width="1.5625" stroke-miterlimit="10" stroke-linecap="round" stroke-linejoin="round"/>
</svg>
