<svg width="20" height="20" viewBox="0 0 20 20" fill="none" xmlns="http://www.w3.org/2000/svg">
<path fill-rule="evenodd" clip-rule="evenodd" d="M6.84043 13.1595C9.24146 15.5607 11.4716 16.8993 13.1311 17.6427C14.5797 18.2916 16.2897 17.7827 17.6229 16.4495L17.9282 16.1442L14.2653 13.8133C13.5686 14.8292 12.2524 15.4239 10.9382 14.8691C9.9423 14.4488 8.62525 13.7309 7.4472 12.5527C6.26913 11.3747 5.55115 10.0576 5.13077 9.0618C4.57605 7.74762 5.17085 6.43134 6.18661 5.73462L3.8557 2.07178L3.55043 2.37706C2.21723 3.71026 1.70838 5.42027 2.35731 6.86892C3.10068 8.52845 4.43935 10.7585 6.84043 13.1595ZM12.2842 19.5332C10.4045 18.6913 7.96263 17.2115 5.37555 14.6244C2.78849 12.0374 1.30867 9.59546 0.46668 7.71583C-0.647568 5.22841 0.369044 2.62868 2.08555 0.912178L2.39083 0.6069C3.32798 -0.330251 4.89195 -0.158574 5.60347 0.959567L8.53565 5.56719C8.69309 5.81461 8.73825 6.11717 8.65995 6.39979C8.58164 6.68242 8.38732 6.91862 8.12494 7.04977L7.46858 7.37796C7.02128 7.60161 6.9295 7.99589 7.03936 8.25613C7.39038 9.08769 7.97723 10.153 8.91207 11.0879C9.847 12.0228 10.9122 12.6096 11.7438 12.9606C12.0041 13.0704 12.3983 12.9787 12.622 12.5314L12.9502 11.875C13.0814 11.6127 13.3175 11.4183 13.6002 11.34C13.8828 11.2617 14.1853 11.3069 14.4328 11.4644L19.0405 14.3965C20.1585 15.108 20.3303 16.672 19.3931 17.6091L19.0878 17.9144C17.3713 19.6309 14.7715 20.6475 12.2842 19.5332Z" fill="#176B87"/>
</svg>
