<svg width="16" height="12" viewBox="0 0 16 12" fill="none" xmlns="http://www.w3.org/2000/svg">
<path fill-rule="evenodd" clip-rule="evenodd" d="M13.3303 1.18066C13.6004 0.910563 13.6004 0.472662 13.3303 0.202566C13.0602 -0.067522 12.6223 -0.067522 12.3522 0.202566L9.40533 3.14948C8.99347 2.90611 8.51301 2.76645 7.99998 2.76645C6.47212 2.76645 5.23354 4.00503 5.23354 5.5329C5.23354 6.04594 5.3732 6.5264 5.61657 6.93825L2.66967 9.88514C2.39958 10.1552 2.39958 10.5931 2.66967 10.8632C2.93976 11.1333 3.37766 11.1333 3.64776 10.8632L6.59465 7.91633C7.00648 8.15971 7.48694 8.29935 7.99998 8.29935C9.52781 8.29935 10.7664 7.06074 10.7664 5.5329C10.7664 5.01986 10.6268 4.5394 10.3834 4.12756L13.3303 1.18066ZM8.35823 4.1965C8.24398 4.166 8.12391 4.14967 7.99998 4.14967C7.23603 4.14967 6.61676 4.76894 6.61676 5.5329C6.61676 5.65683 6.63308 5.7769 6.66358 5.89115L8.35823 4.1965ZM7.64172 6.8693L9.33637 5.17464C9.36687 5.2889 9.3832 5.40896 9.3832 5.5329C9.3832 6.29685 8.76393 6.91612 7.99998 6.91612C7.87604 6.91612 7.75598 6.8998 7.64172 6.8693ZM10.604 0.567606C9.81801 0.221655 8.94575 0 7.99998 0C6.02719 0 4.37399 0.964536 3.15741 2.00979C1.93642 3.05884 1.08912 4.24484 0.71309 4.8204C0.42897 5.25522 0.42897 5.81058 0.71309 6.2454C1.03046 6.73118 1.68355 7.65179 2.61368 8.55794L3.59184 7.57979C2.78213 6.79364 2.19837 5.98459 1.9 5.5329C2.25298 4.99856 3.00539 3.96403 4.05882 3.05896C5.14641 2.12453 6.48932 1.38322 7.99998 1.38322C8.53383 1.38322 9.04673 1.4758 9.53487 1.63676L10.604 0.567606ZM7.99998 9.68257C7.46619 9.68257 6.9533 9.58996 6.46518 9.42903L5.39604 10.4982C6.18199 10.8441 7.05427 11.0658 7.99998 11.0658C9.97279 11.0658 11.626 10.1013 12.8426 9.05604C14.0636 8.00693 14.9109 6.82096 15.2869 6.2454C15.571 5.81058 15.571 5.25522 15.2869 4.8204C14.9695 4.33461 14.3164 3.41398 13.3863 2.50786L12.4082 3.48602C13.2179 4.27216 13.8017 5.08121 14.1 5.5329C13.747 6.06724 12.9946 7.10175 11.9412 8.00686C10.8536 8.9413 9.51066 9.68257 7.99998 9.68257Z" fill="#176B87"/>
</svg>
