<svg width="16" height="15" viewBox="0 0 16 15" fill="none" xmlns="http://www.w3.org/2000/svg">
<path d="M12.6875 5.625H11.4375V4.0625C11.4375 3.15082 11.0753 2.27648 10.4307 1.63182C9.78602 0.987164 8.91168 0.625 8 0.625H7.375C6.46332 0.625 5.58898 0.987164 4.94432 1.63182C4.29966 2.27648 3.9375 3.15082 3.9375 4.0625V5.625H2.6875C2.52174 5.625 2.36277 5.69085 2.24556 5.80806C2.12835 5.92527 2.0625 6.08424 2.0625 6.25V13.75C2.0625 13.9158 2.12835 14.0747 2.24556 14.1919C2.36277 14.3092 2.52174 14.375 2.6875 14.375H12.6875C12.8533 14.375 13.0122 14.3092 13.1294 14.1919C13.2467 14.0747 13.3125 13.9158 13.3125 13.75V6.25C13.3125 6.08424 13.2467 5.92527 13.1294 5.80806C13.0122 5.69085 12.8533 5.625 12.6875 5.625ZM5.1875 4.0625C5.1875 3.48234 5.41797 2.92594 5.8282 2.5157C6.23844 2.10547 6.79484 1.875 7.375 1.875H8C8.58016 1.875 9.13656 2.10547 9.5468 2.5157C9.95703 2.92594 10.1875 3.48234 10.1875 4.0625V5.625H5.1875V4.0625ZM12.0625 13.125H3.3125V6.875H12.0625V13.125Z" fill="#176B87"/>
<path d="M5.1875 10.9375C5.70527 10.9375 6.125 10.5178 6.125 10C6.125 9.48223 5.70527 9.0625 5.1875 9.0625C4.66973 9.0625 4.25 9.48223 4.25 10C4.25 10.5178 4.66973 10.9375 5.1875 10.9375Z" fill="#176B87"/>
<path d="M7.6875 10.9375C8.20527 10.9375 8.625 10.5178 8.625 10C8.625 9.48223 8.20527 9.0625 7.6875 9.0625C7.16973 9.0625 6.75 9.48223 6.75 10C6.75 10.5178 7.16973 10.9375 7.6875 10.9375Z" fill="#176B87"/>
<path d="M10.1875 10.9375C10.7053 10.9375 11.125 10.5178 11.125 10C11.125 9.48223 10.7053 9.0625 10.1875 9.0625C9.66973 9.0625 9.25 9.48223 9.25 10C9.25 10.5178 9.66973 10.9375 10.1875 10.9375Z" fill="#176B87"/>
</svg>
