<svg width="20" height="20" viewBox="0 0 20 20" fill="none" xmlns="http://www.w3.org/2000/svg">
<g clip-path="url(#clip0_57_2)">
<path fill-rule="evenodd" clip-rule="evenodd" d="M14 6C14 3.794 12.206 2 10 2C7.794 2 6 3.794 6 6C6 8.206 7.794 10 10 10C12.206 10 14 8.206 14 6ZM20 20H15V18H17.784C16.958 14.214 13.785 12 10 12C6.215 12 3.042 14.214 2.216 18H5V20H0C0 15.445 2.583 12.048 6.242 10.673C4.876 9.57397 4 7.89 4 6C4 2.686 6.686 0 10 0C13.314 0 16 2.686 16 6C16 7.89 15.124 9.57397 13.758 10.673C17.417 12.048 20 15.445 20 20ZM7 20H13V18H7V20Z" fill="#176B87"/>
</g>
<defs>
<clipPath id="clip0_57_2">
<rect width="20" height="20" fill="white"/>
</clipPath>
</defs>
</svg>
